<svg xmlns="http://www.w3.org/2000/svg" viewBox="0 0 2048 1365" role="img" aria-label="HaMakom logo">
  <defs>
    <linearGradient id="iconGrad" x1="380" y1="770" x2="760" y2="420" gradientUnits="userSpaceOnUse">
      <stop offset="0%" stop-color="#FF4D5E"/>
      <stop offset="55%" stop-color="#FF8A72"/>
      <stop offset="100%" stop-color="#FFB183"/>
    </linearGradient>
  </defs>

  <path fill="url(#iconGrad)" fill-rule="evenodd" d="M 478 426 L 457 430 L 437 438 L 417 450 L 397 470 L 382 494 L 375 515 L 373 527 L 373 555 L 379 580 L 394 610 L 446 683 L 518 778 L 521 778 L 522 773 L 549 721 L 563 689 L 458 584 L 451 575 L 441 556 L 439 537 L 442 521 L 450 506 L 458 498 L 472 489 L 486 485 L 506 486 L 516 490 L 527 498 L 536 508 L 541 516 L 546 531 L 546 549 L 541 565 L 533 577 L 519 589 L 511 593 L 488 598 L 521 633 L 555 665 L 559 662 L 581 633 L 601 597 L 612 560 L 613 531 L 608 509 L 597 485 L 582 465 L 565 449 L 550 439 L 529 430 L 509 426 Z"/>
  <path fill="url(#iconGrad)" fill-rule="evenodd" d="M 641 421 L 607 422 L 587 427 L 566 436 L 566 438 L 580 446 L 597 463 L 612 485 L 622 481 L 644 481 L 664 490 L 677 504 L 686 526 L 687 539 L 685 555 L 673 577 L 663 587 L 647 597 L 629 602 L 614 601 L 573 660 L 573 662 L 584 669 L 601 648 L 626 612 L 631 609 L 637 609 L 633 618 L 616 643 L 581 685 L 583 693 L 601 731 L 610 755 L 619 771 L 665 710 L 729 618 L 745 586 L 749 573 L 753 544 L 752 526 L 745 499 L 737 482 L 726 466 L 709 449 L 694 438 L 664 425 Z"/>
  <path fill="#17171C" fill-rule="evenodd" d="M 810 509 L 810 635 L 833 635 L 834 581 L 893 581 L 894 635 L 916 636 L 917 510 L 894 509 L 893 563 L 834 563 L 833 509 Z"/>
  <path fill="#17171C" fill-rule="evenodd" d="M 938 574 L 934 585 L 934 606 L 938 617 L 954 633 L 969 638 L 987 638 L 1006 628 L 1008 636 L 1029 635 L 1029 556 L 1027 554 L 1008 555 L 1005 562 L 1001 558 L 989 553 L 966 553 L 952 559 Z M 975 570 L 987 570 L 996 574 L 1003 582 L 1006 590 L 1006 601 L 1001 611 L 994 617 L 983 621 L 974 620 L 967 617 L 961 611 L 957 602 L 958 583 L 966 574 Z"/>
  <path fill="#17171C" fill-rule="evenodd" d="M 1025 688 L 1025 698 L 1035 699 L 1036 755 L 1079 755 L 1090 753 L 1093 750 L 1097 739 L 1097 711 L 1094 699 L 1089 692 L 1078 687 Z M 1050 698 L 1069 698 L 1075 700 L 1081 707 L 1082 736 L 1081 740 L 1077 743 L 1049 743 Z"/>
  <path fill="#17171C" fill-rule="evenodd" d="M 1049 509 L 1049 635 L 1070 635 L 1071 554 L 1099 605 L 1105 612 L 1118 612 L 1121 610 L 1150 557 L 1151 635 L 1172 636 L 1173 509 L 1153 510 L 1112 585 L 1070 509 Z"/>
  <path fill="#17171C" fill-rule="evenodd" d="M 1109 687 L 1108 699 L 1118 699 L 1118 754 L 1131 755 L 1132 688 Z"/>
  <path fill="#17171C" fill-rule="evenodd" d="M 1205 689 L 1199 687 L 1149 688 L 1149 698 L 1187 698 L 1198 702 L 1205 713 L 1205 728 L 1202 736 L 1197 741 L 1188 744 L 1171 744 L 1170 715 L 1155 715 L 1156 786 L 1170 786 L 1171 755 L 1201 754 L 1209 750 L 1214 745 L 1220 728 L 1220 715 L 1216 700 Z"/>
  <path fill="#17171C" fill-rule="evenodd" d="M 1199 567 L 1194 574 L 1190 586 L 1190 604 L 1197 621 L 1206 630 L 1217 636 L 1225 638 L 1247 637 L 1262 628 L 1264 636 L 1284 635 L 1283 554 L 1264 555 L 1262 562 L 1252 555 L 1245 553 L 1221 553 L 1208 559 Z M 1222 574 L 1230 570 L 1243 570 L 1252 574 L 1257 579 L 1261 586 L 1262 601 L 1257 612 L 1251 617 L 1242 620 L 1231 620 L 1223 617 L 1217 611 L 1213 601 L 1213 588 L 1215 582 Z"/>
  <path fill="#17171C" fill-rule="evenodd" d="M 1230 689 L 1231 698 L 1242 699 L 1242 755 L 1256 754 L 1257 698 L 1276 698 L 1284 701 L 1290 707 L 1293 718 L 1292 730 L 1289 737 L 1284 742 L 1278 744 L 1267 744 L 1265 746 L 1265 754 L 1289 754 L 1301 746 L 1306 735 L 1307 714 L 1305 703 L 1297 692 L 1286 687 L 1232 687 Z"/>
  <path fill="#17171C" fill-rule="evenodd" d="M 1304 505 L 1303 635 L 1325 635 L 1325 607 L 1328 602 L 1332 602 L 1362 636 L 1387 636 L 1388 634 L 1349 591 L 1384 555 L 1358 554 L 1326 586 L 1325 505 Z"/>
  <path fill="#17171C" fill-rule="evenodd" d="M 1322 687 L 1320 692 L 1321 698 L 1358 698 L 1369 704 L 1371 710 L 1371 754 L 1384 755 L 1385 702 L 1381 694 L 1377 690 L 1370 687 Z"/>
  <path fill="#17171C" fill-rule="evenodd" d="M 1321 725 L 1320 754 L 1333 755 L 1334 725 Z"/>
  <path fill="#17171C" fill-rule="evenodd" d="M 1413 555 L 1397 566 L 1389 580 L 1387 587 L 1387 603 L 1394 620 L 1402 629 L 1411 634 L 1424 638 L 1450 637 L 1466 629 L 1473 622 L 1481 604 L 1481 586 L 1477 574 L 1467 562 L 1453 554 L 1431 552 Z M 1427 570 L 1440 570 L 1449 574 L 1457 583 L 1459 592 L 1457 608 L 1451 615 L 1441 620 L 1433 621 L 1420 617 L 1410 604 L 1410 586 L 1419 574 Z"/>
  <path fill="#17171C" fill-rule="evenodd" d="M 1497 554 L 1497 636 L 1518 636 L 1518 586 L 1524 574 L 1536 569 L 1543 570 L 1548 573 L 1553 581 L 1554 636 L 1575 635 L 1575 588 L 1578 578 L 1588 570 L 1598 570 L 1604 573 L 1609 580 L 1611 591 L 1611 635 L 1632 635 L 1632 582 L 1628 567 L 1619 557 L 1602 552 L 1586 553 L 1574 558 L 1568 563 L 1563 558 L 1552 553 L 1532 553 L 1522 558 L 1520 561 L 1518 560 L 1517 554 Z"/>
</svg>